<svg xmlns="http://www.w3.org/2000/svg" viewBox="0 0 1440 760" role="img" aria-labelledby="title desc">
  <title id="title">Noir city map with clear teal routes</title>
  <desc id="desc">A stylized dark city skyline, Croatian route lights, warm windows and a red urgent signal.</desc>
  <rect width="1440" height="760" fill="#111827"/>
  <rect y="520" width="1440" height="240" fill="#17202a"/>
  <path d="M0 520 H92 V380 H148 V520 H214 V314 H284 V520 H360 V350 H415 V520 H520 V278 H610 V520 H690 V330 H760 V520 H834 V410 H890 V520 H994 V300 H1090 V520 H1160 V365 H1234 V520 H1320 V420 H1440 V760 H0Z" fill="#0b1018"/>
  <path d="M164 620 C280 560 396 560 512 614 C632 670 752 670 872 612 C1012 546 1162 562 1300 640" fill="none" stroke="#28c7b8" stroke-width="7" stroke-linecap="round" opacity="0.72"/>
  <path d="M214 314 L247 254 L284 314" fill="#162334"/>
  <path d="M520 278 L565 210 L610 278" fill="#162334"/>
  <path d="M994 300 L1042 226 L1090 300" fill="#162334"/>
  <g fill="#f4c95d" opacity="0.9">
    <rect x="110" y="420" width="18" height="28" rx="2"/>
    <rect x="242" y="372" width="20" height="30" rx="2"/>
    <rect x="552" y="342" width="18" height="28" rx="2"/>
    <rect x="584" y="424" width="18" height="28" rx="2"/>
    <rect x="1018" y="360" width="18" height="28" rx="2"/>
    <rect x="1052" y="430" width="18" height="28" rx="2"/>
    <rect x="1190" y="420" width="18" height="28" rx="2"/>
  </g>
  <g fill="#28c7b8">
    <circle cx="164" cy="620" r="13"/>
    <circle cx="512" cy="614" r="13"/>
    <circle cx="872" cy="612" r="13"/>
    <circle cx="1300" cy="640" r="13"/>
  </g>
  <circle cx="1180" cy="210" r="48" fill="none" stroke="#f05454" stroke-width="8"/>
  <text x="1180" y="222" text-anchor="middle" fill="#f7f2e7" font-family="Arial, sans-serif" font-size="32" font-weight="700">72h</text>
  <path d="M0 100 C210 148 350 120 520 90 C710 56 910 78 1100 130 C1254 172 1350 150 1440 120 V0 H0Z" fill="#1f2937" opacity="0.58"/>
</svg>
